<?xml version="1.0" standalone="no"?>
<!DOCTYPE svg PUBLIC "-//W3C//DTD SVG 20010904//EN"
 "http://www.w3.org/TR/2001/REC-SVG-20010904/DTD/svg10.dtd">
<svg version="1.0" xmlns="http://www.w3.org/2000/svg"
 width="700.000000pt" height="700.000000pt" viewBox="0 0 700.000000 700.000000"
 preserveAspectRatio="xMidYMid meet">
<metadata>
Created by potrace 1.14, written by Peter Selinger 2001-2017
</metadata>
<g transform="translate(0.000000,700.000000) scale(0.100000,-0.100000)"
fill="#000000" stroke="none">
<path d="M4330 5272 c-57 -19 -88 -71 -140 -237 -63 -201 -130 -270 -340 -350
-135 -51 -192 -81 -228 -118 -82 -86 -20 -156 218 -241 148 -54 214 -94 260
-161 16 -24 55 -107 84 -184 77 -197 115 -251 175 -253 61 -2 126 92 187 271
68 198 122 248 363 336 160 59 240 122 225 179 -15 60 -77 100 -262 172 -118
45 -188 87 -235 138 -36 40 -91 156 -112 235 -22 85 -57 161 -87 189 -24 22
-78 34 -108 24z"/>
<path d="M2745 4744 c-66 -15 -87 -59 -176 -373 -83 -290 -140 -405 -244 -499
-77 -68 -190 -120 -450 -207 -320 -106 -418 -162 -401 -229 3 -14 16 -35 29
-47 44 -42 195 -106 377 -159 432 -128 536 -224 654 -605 82 -265 120 -365
156 -412 46 -61 71 -74 116 -60 40 12 64 42 98 119 23 51 38 98 127 373 82
257 164 377 309 455 90 48 113 56 465 167 82 26 208 82 236 105 30 25 51 67
44 88 -20 64 -108 108 -404 206 -258 86 -366 135 -444 205 -104 93 -156 200
-247 510 -66 224 -88 283 -125 325 -30 35 -73 48 -120 38z"/>
<path d="M4051 2904 c-38 -27 -89 -117 -121 -215 -50 -148 -80 -178 -263 -254
-123 -52 -177 -86 -201 -127 -50 -83 14 -151 212 -222 159 -57 170 -70 266
-306 26 -63 55 -123 65 -133 22 -22 77 -29 125 -16 51 14 88 66 140 198 26 64
56 131 68 148 27 37 83 72 163 102 103 39 184 82 206 109 17 22 20 37 16 77
-4 43 -10 54 -45 85 -22 19 -92 58 -154 85 -148 65 -188 105 -259 251 -70 144
-107 200 -146 219 -39 19 -43 19 -72 -1z"/>
</g>
</svg>
