<?xml version="1.0" standalone="no"?>
<!DOCTYPE svg PUBLIC "-//W3C//DTD SVG 20010904//EN"
 "http://www.w3.org/TR/2001/REC-SVG-20010904/DTD/svg10.dtd">
<svg version="1.0" xmlns="http://www.w3.org/2000/svg"
 width="199.000000pt" height="199.000000pt" viewBox="0 0 199.000000 199.000000"
 preserveAspectRatio="xMidYMid meet">

<g transform="translate(0.000000,199.000000) scale(0.100000,-0.100000)"  fill="#edf0f3" stroke="none">
<path d="M1213 1488 c-5 -7 -15 -32 -21 -55 -17 -59 -40 -82 -102 -103 -94
-32 -94 -68 -2 -99 67 -23 80 -36 103 -103 31 -92 67 -92 98 0 23 67 36 80
103 103 92 31 92 67 -2 99 -62 21 -85 44 -102 103 -14 52 -25 67 -48 67 -10 0
-22 -6 -27 -12z"/>
<path d="M762 1338 c-5 -7 -20 -49 -31 -93 -38 -139 -62 -162 -205 -205 -144
-43 -144 -77 -1 -119 144 -43 163 -62 205 -205 27 -94 47 -119 77 -100 10 6
29 49 43 100 42 143 61 162 204 204 144 41 144 77 0 120 -143 43 -165 65 -204
205 -24 88 -34 105 -60 105 -10 0 -22 -6 -28 -12z"/>
<path d="M1136 808 c-8 -13 -18 -35 -21 -50 -8 -33 -26 -49 -78 -68 -77 -29
-76 -69 3 -95 53 -17 54 -19 89 -108 9 -23 16 -28 38 -25 23 2 31 12 48 58 19
51 24 56 75 75 46 17 55 25 55 45 0 24 -10 32 -80 62 -16 7 -36 27 -43 43 -38
89 -59 104 -86 63z"/>
</g>
</svg>
